<?xml version="1.0" encoding="UTF-8"?>
<!-- Created with Inkscape (http://www.inkscape.org/) -->
<svg width="1656.3" height="1514.6" version="1.1" viewBox="0 0 438.24 400.74" xml:space="preserve" xmlns="http://www.w3.org/2000/svg"><g stroke-width="0"><path d="m344.15 297.83a7.3518 7.3518 0 0 0-9.9515 3.0107l-10.411 19.443a7.3518 7.3518 0 0 0 3.0107 9.9516 7.3518 7.3518 0 0 0 9.9515-3.0107l10.411-19.443a7.3518 7.3518 0 0 0-3.0108-9.9516z" fill="#ff4500" stop-color="#000000"/><path d="m345.53 344.64a6.022 7.3518 26.761 0 0-8.3521-2.0107l-17.268 11.745a6.022 7.3518 26.761 0 0-3.1597 9.8409 6.022 7.3518 26.761 0 0 8.3521 2.0107l17.268-11.745a6.022 7.3518 26.761 0 0 3.1596-9.8409z" fill="#6495ed" stop-color="#000000"/><g transform="translate(.00018571 .0099056)"><g transform="translate(19.986,34.782)"><ellipse transform="rotate(54.803)" cx="219.03" cy="-178.72" rx="99.221" ry="114.9" fill="#ff7f50" stop-color="#000000" stroke-width="0"/><path d="m51.615 101.32a4.0234 4.0234 0 0 0-5.69-2e-5l-56.9 56.9a4.0234 4.0234 0 0 0 0 5.69 4.0234 4.0234 0 0 0 5.69 0l56.9-56.9a4.0234 4.0234 0 0 0 0-5.69z" fill="#3cb371" stop-color="#000000"/><path d="m103.05 51.05a5.4758 5.4758 0 0 0-7.744 0l-38.72 38.72a5.4758 5.4758 0 0 0 0 7.744 5.4758 5.4758 0 0 0 7.744 0l38.72-38.72a5.4758 5.4758 0 0 0 0-7.744z" fill="#00fa9a" stop-color="#000000"/><path d="m187.36-33.264a5.2186 5.2186 0 0 0-7.3802 0l-73.802 73.802a5.2186 5.2186 0 0 0 0 7.3802 5.2186 5.2186 0 0 0 7.3802 0l73.802-73.802a5.2186 5.2186 0 0 0 0-7.3802z" fill="#f0fff0" stop-color="#000000"/><path d="m58.039 118.71a2.8511 2.8511 0 0 0-4.0321 0l-20.161 20.161a2.8511 2.8511 0 0 0 0 4.0321 2.8511 2.8511 0 0 0 4.0321 0l20.161-20.161a2.8511 2.8511 0 0 0 0-4.0321z" fill="#00fa9a" stop-color="#000000"/><path d="m107.37 68.739a2.8511 2.8511 0 0 0-4.0321 0l-40.321 40.321a2.8511 2.8511 0 0 0 0 4.0321 2.8511 2.8511 0 0 0 4.0321 0l40.321-40.321a2.8511 2.8511 0 0 0 0-4.0321z" fill="#f0fff0" stop-color="#000000"/><path d="m160.58 15.46a3.1067 3.1067 0 0 0-4.3936-1.5e-5l-43.936 43.936a3.1067 3.1067 0 0 0 0 4.3936 3.1067 3.1067 0 0 0 4.3936 0l43.936-43.936a3.1067 3.1067 0 0 0 0-4.3936z" fill="#3cb371" stop-color="#000000"/><path d="m74.28 160.49a2.8511 2.8511 0 0 0-4.0321 0l-40.321 40.321a2.8511 2.8511 0 0 0 0 4.0321 2.8511 2.8511 0 0 0 4.0321 0l40.321-40.321a2.8511 2.8511 0 0 0 0-4.0321z" fill="#f0fff0" stop-color="#000000"/><path d="m23.013 191.03a2.8511 2.8511 0 0 0-4.0321 0l-20.161 20.161a2.8511 2.8511 0 0 0 0 4.0321 2.8511 2.8511 0 0 0 4.0321 0l20.161-20.161a2.8511 2.8511 0 0 0 0-4.0321z" fill="#00fa9a" stop-color="#000000"/><path d="m50.079 203.54a3.5324 3.5324 0 0 0-4.9956-1e-5l-49.956 49.956a3.5324 3.5324 0 0 0 0 4.9956 3.5324 3.5324 0 0 0 4.9956 0l49.956-49.956a3.5324 3.5324 0 0 0 0-4.9956z" fill="#3cb371" stop-color="#000000"/><path d="m74.28 200.47a2.8511 2.8511 0 0 0-4.0321 0l-40.321 40.321a2.8511 2.8511 0 0 0 0 4.0321 2.8511 2.8511 0 0 0 4.0321 0l40.321-40.321a2.8511 2.8511 0 0 0 0-4.0321z" fill="#f0fff0" stop-color="#000000"/><path d="m77.132 174.99a2.8511 2.8511 0 0 0-4.0321 0l-20.161 20.161a2.8511 2.8511 0 0 0 0 4.0321 2.8511 2.8511 0 0 0 4.0321 0l20.161-20.161a2.8511 2.8511 0 0 0 0-4.0321z" fill="#00fa9a" stop-color="#000000"/><path d="m72.247 141.06a2.8511 2.8511 0 0 0-4.0321 0l-40.321 40.321a2.8511 2.8511 0 0 0 0 4.0321 2.8511 2.8511 0 0 0 4.0321 0l40.321-40.321a2.8511 2.8511 0 0 0 0-4.0321z" fill="#3cb371" stop-color="#000000"/><path d="m173.4 290.43a2.8511 2.8511 0 0 0-4.0321 0l-20.161 20.161a2.8511 2.8511 0 0 0 0 4.0321 2.8511 2.8511 0 0 0 4.0321 0l20.161-20.161a2.8511 2.8511 0 0 0 0-4.0321z" fill="#00fa9a" stop-color="#000000"/><path d="m106.02 191.53a2.587 2.587 0 0 0-3.6586 0l-36.586 36.586a2.587 2.587 0 0 0 0 3.6586 2.587 2.587 0 0 0 3.6586 0l36.586-36.586a2.587 2.587 0 0 0 0-3.6586z" fill="#3cb371" stop-color="#000000"/><path d="m123.44 151.98a2.8511 2.8511 0 0 0-4.0321 0l-40.321 40.321a2.8511 2.8511 0 0 0 0 4.0321 2.8511 2.8511 0 0 0 4.0321 0l40.321-40.321a2.8511 2.8511 0 0 0 0-4.0321z" fill="#f0fff0" stop-color="#000000"/><path d="m25.202 209.5a2.8511 2.8511 0 0 0-4.0321 0l-40.321 40.321a2.8511 2.8511 0 0 0 0 4.0321 2.8511 2.8511 0 0 0 4.0321 0l40.321-40.321a2.8511 2.8511 0 0 0 0-4.0321z" fill="#f0fff0" stop-color="#000000"/><path d="m157.83 141.12a5.7173 5.7173 0 0 0-8.0855 0l-40.428 40.428a5.7173 5.7173 0 0 0 0 8.0855 5.7173 5.7173 0 0 0 8.0855 0l40.428-40.428a5.7173 5.7173 0 0 0 0-8.0855z" fill="#00fa9a" stop-color="#000000"/><path d="m62.293 234.98a2.8511 2.8511 0 0 0-4.0321 0l-20.161 20.161a2.8511 2.8511 0 0 0 0 4.0321 2.8511 2.8511 0 0 0 4.0321 0l20.161-20.161a2.8511 2.8511 0 0 0 0-4.0321z" fill="#00fa9a" stop-color="#000000"/><path d="m84.789 238.11a2.8511 2.8511 0 0 0-4.0321 0l-40.321 40.321a2.8511 2.8511 0 0 0 0 4.0321 2.8511 2.8511 0 0 0 4.0321 0l40.321-40.321a2.8511 2.8511 0 0 0 0-4.0321z" fill="#f0fff0" stop-color="#000000"/><path d="m134.15 189.19a2.8511 2.8511 0 0 0-4.0321 0l-40.321 40.321a2.8511 2.8511 0 0 0 0 4.0321 2.8511 2.8511 0 0 0 4.0321 0l40.321-40.321a2.8511 2.8511 0 0 0 0-4.0321z" fill="#3cb371" stop-color="#000000"/><path d="m183.37 140.28a2.8511 2.8511 0 0 0-4.0321 0l-40.321 40.321a2.8511 2.8511 0 0 0 0 4.0321 2.8511 2.8511 0 0 0 4.0321 0l40.321-40.321a2.8511 2.8511 0 0 0 0-4.0321z" fill="#f0fff0" stop-color="#000000"/><path d="m119.13 226.04a5.4758 5.4758 0 0 0-7.744 0l-38.72 38.72a5.4758 5.4758 0 0 0 0 7.744 5.4758 5.4758 0 0 0 7.744 0l38.72-38.72a5.4758 5.4758 0 0 0 0-7.744z" fill="#00fa9a" stop-color="#000000"/><path d="m203.44 141.73a5.2186 5.2186 0 0 0-7.3802 0l-73.802 73.802a5.2186 5.2186 0 0 0 0 7.3802 5.2186 5.2186 0 0 0 7.3802 0l73.802-73.802a5.2186 5.2186 0 0 0 0-7.3802z" fill="#f0fff0" stop-color="#000000"/><path d="m160.08 285.51a2.3706 2.3706 0 0 0-3.3526 0l-33.526 33.526a2.3706 2.3706 0 0 0 0 3.3526 2.3706 2.3706 0 0 0 3.3526 0l33.526-33.526a2.3706 2.3706 0 0 0 0-3.3526z" fill="#3cb371" stop-color="#000000"/><path d="m126.23 261.61a2.8511 2.8511 0 0 0-4.0321 0l-20.161 20.161a2.8511 2.8511 0 0 0 0 4.0321 2.8511 2.8511 0 0 0 4.0321 0l20.161-20.161a2.8511 2.8511 0 0 0 0-4.0321z" fill="#00fa9a" stop-color="#000000"/><path d="m123.44 243.73a2.8511 2.8511 0 0 0-4.0321 0l-40.321 40.321a2.8511 2.8511 0 0 0 0 4.0321 2.8511 2.8511 0 0 0 4.0321 0l40.321-40.321a2.8511 2.8511 0 0 0 0-4.0321z" fill="#f0fff0" stop-color="#000000"/><path d="m176.66 190.45a3.1067 3.1067 0 0 0-4.3936-2e-5l-43.936 43.936a3.1067 3.1067 0 0 0 0 4.3936 3.1067 3.1067 0 0 0 4.3936 0l43.936-43.936a3.1067 3.1067 0 0 0 0-4.3936z" fill="#3cb371" stop-color="#000000"/><path d="m206.57 162.69a2.8511 2.8511 0 0 0-4.0321 0l-20.161 20.161a2.8511 2.8511 0 0 0 0 4.0321 2.8511 2.8511 0 0 0 4.0321 0l20.161-20.161a2.8511 2.8511 0 0 0 0-4.0321z" fill="#00fa9a" stop-color="#000000"/><path d="m214.55 171.83a2.3706 2.3706 0 0 0-3.3526 0l-33.526 33.526a2.3706 2.3706 0 0 0 0 3.3526 2.3706 2.3706 0 0 0 3.3526 0l33.526-33.526a2.3706 2.3706 0 0 0 0-3.3526z" fill="#3cb371" stop-color="#000000"/><path d="m244.28 144.57a2.8511 2.8511 0 0 0-4.0321 0l-20.161 20.161a2.8511 2.8511 0 0 0 0 4.0321 2.8511 2.8511 0 0 0 4.0321 0l20.161-20.161a2.8511 2.8511 0 0 0 0-4.0321z" fill="#00fa9a" stop-color="#000000"/><path d="m226.51 180.7a2.8511 2.8511 0 0 0-4.0321 0l-40.321 40.321a2.8511 2.8511 0 0 0 0 4.0321 2.8511 2.8511 0 0 0 4.0321 0l40.321-40.321a2.8511 2.8511 0 0 0 0-4.0321z" fill="#3cb371" stop-color="#000000"/><path d="m260.52 186.36a2.8511 2.8511 0 0 0-4.0321 0l-40.321 40.321a2.8511 2.8511 0 0 0 0 4.0321 2.8511 2.8511 0 0 0 4.0321 0l40.321-40.321a2.8511 2.8511 0 0 0 0-4.0321z" fill="#f0fff0" stop-color="#000000"/><path d="m211.1 218.71a2.8511 2.8511 0 0 0-4.0321 0l-20.161 20.161a2.8511 2.8511 0 0 0 0 4.0321 2.8511 2.8511 0 0 0 4.0321 0l20.161-20.161a2.8511 2.8511 0 0 0 0-4.0321z" fill="#00fa9a" stop-color="#000000"/><path d="m230.85 232.58a3.5324 3.5324 0 0 0-4.9956-1e-5l-49.956 49.956a3.5324 3.5324 0 0 0 0 4.9956 3.5324 3.5324 0 0 0 4.9956 0l49.956-49.956a3.5324 3.5324 0 0 0 0-4.9956z" fill="#3cb371" stop-color="#000000"/><path d="m260.52 226.34a2.8511 2.8511 0 0 0-4.0321 0l-40.321 40.321a2.8511 2.8511 0 0 0 0 4.0321 2.8511 2.8511 0 0 0 4.0321 0l40.321-40.321a2.8511 2.8511 0 0 0 0-4.0321z" fill="#f0fff0" stop-color="#000000"/><path d="m263.37 200.86a2.8511 2.8511 0 0 0-4.0321 0l-20.161 20.161a2.8511 2.8511 0 0 0 0 4.0321 2.8511 2.8511 0 0 0 4.0321 0l20.161-20.161a2.8511 2.8511 0 0 0 0-4.0321z" fill="#00fa9a" stop-color="#000000"/><path d="m259.83 166.59a2.8511 2.8511 0 0 0-4.0321 0l-40.321 40.321a2.8511 2.8511 0 0 0 0 4.0321 2.8511 2.8511 0 0 0 4.0321 0l40.321-40.321a2.8511 2.8511 0 0 0 0-4.0321z" fill="#3cb371" stop-color="#000000"/><path d="m211.36 275.97a2.8511 2.8511 0 0 0-4.0321 0l-20.161 20.161a2.8511 2.8511 0 0 0 0 4.0321 2.8511 2.8511 0 0 0 4.0321 0l20.161-20.161a2.8511 2.8511 0 0 0 0-4.0321z" fill="#00fa9a" stop-color="#000000"/><path d="m292.26 217.39a2.587 2.587 0 0 0-3.6586 0l-36.586 36.586a2.587 2.587 0 0 0 0 3.6586 2.587 2.587 0 0 0 3.6586 0l36.586-36.586a2.587 2.587 0 0 0 0-3.6586z" fill="#3cb371" stop-color="#000000"/><path d="m309.68 177.84a2.8511 2.8511 0 0 0-4.0321 0l-40.321 40.321a2.8511 2.8511 0 0 0 0 4.0321 2.8511 2.8511 0 0 0 4.0321 0l40.321-40.321a2.8511 2.8511 0 0 0 0-4.0321z" fill="#f0fff0" stop-color="#000000"/><path d="m208.5 237.88a2.8511 2.8511 0 0 0-4.0321 0l-40.321 40.321a2.8511 2.8511 0 0 0 0 4.0321 2.8511 2.8511 0 0 0 4.0321 0l40.321-40.321a2.8511 2.8511 0 0 0 0-4.0321z" fill="#f0fff0" stop-color="#000000"/><path d="m249.4 263.06a4.1456 4.1456 0 0 0-5.8627 0l-58.627 58.627a4.1456 4.1456 0 0 0 0 5.8627 4.1456 4.1456 0 0 0 5.8627 0l58.627-58.627a4.1456 4.1456 0 0 0 0-5.8627z" fill="#3cb371" stop-color="#000000"/><path d="m344.07 166.98a5.7173 5.7173 0 0 0-8.0855 0l-40.428 40.428a5.7173 5.7173 0 0 0 0 8.0855 5.7173 5.7173 0 0 0 8.0855 0l40.428-40.428a5.7173 5.7173 0 0 0 0-8.0855z" fill="#00fa9a" stop-color="#000000"/><path d="m215.47 316.76a2.8511 2.8511 0 0 0-4.0321 0l-20.161 20.161a2.8511 2.8511 0 0 0 0 4.0321 2.8511 2.8511 0 0 0 4.0321 0l20.161-20.161a2.8511 2.8511 0 0 0 0-4.0321z" fill="#00fa9a" stop-color="#000000"/><path d="m267.83 266.39a2.8511 2.8511 0 0 0-4.0321 0l-40.321 40.321a2.8511 2.8511 0 0 0 0 4.0321 2.8511 2.8511 0 0 0 4.0321 0l40.321-40.321a2.8511 2.8511 0 0 0 0-4.0321z" fill="#f0fff0" stop-color="#000000"/><path d="m320.39 215.57a2.8511 2.8511 0 0 0-4.0321 0l-40.321 40.321a2.8511 2.8511 0 0 0 0 4.0321 2.8511 2.8511 0 0 0 4.0321 0l40.321-40.321a2.8511 2.8511 0 0 0 0-4.0321z" fill="#3cb371" stop-color="#000000"/><path d="m369.61 166.14a2.8511 2.8511 0 0 0-4.0321 0l-40.321 40.321a2.8511 2.8511 0 0 0 0 4.0321 2.8511 2.8511 0 0 0 4.0321 0l40.321-40.321a2.8511 2.8511 0 0 0 0-4.0321z" fill="#f0fff0" stop-color="#000000"/><path d="m253.93 302.18a4.0234 4.0234 0 0 0-5.69-2e-5l-56.9 56.9a4.0234 4.0234 0 0 0 0 5.69 4.0234 4.0234 0 0 0 5.69 0l56.9-56.9a4.0234 4.0234 0 0 0 0-5.69z" fill="#3cb371" stop-color="#000000"/><path d="m305.37 251.91a5.4758 5.4758 0 0 0-7.744 0l-38.72 38.72a5.4758 5.4758 0 0 0 0 7.744 5.4758 5.4758 0 0 0 7.744 0l38.72-38.72a5.4758 5.4758 0 0 0 0-7.744z" fill="#00fa9a" stop-color="#000000"/><path d="m389.68 167.59a5.2186 5.2186 0 0 0-7.3802 0l-73.802 73.802a5.2186 5.2186 0 0 0 0 7.3802 5.2186 5.2186 0 0 0 7.3802 0l73.802-73.802a5.2186 5.2186 0 0 0 0-7.3802z" fill="#f0fff0" stop-color="#000000"/><path d="m103.05 51.05a5.4758 5.4758 0 0 0-7.744 0l-38.72 38.72a5.4758 5.4758 0 0 0 0 7.744 5.4758 5.4758 0 0 0 7.744 0l38.72-38.72a5.4758 5.4758 0 0 0 0-7.744z" fill="#00fa9a" stop-color="#000000"/><path d="m89.959 106.31a2.8511 2.8511 0 0 0-4.0321 0l-40.321 40.321a2.8511 2.8511 0 0 0 0 4.0321 2.8511 2.8511 0 0 0 4.0321 0l40.321-40.321a2.8511 2.8511 0 0 0 0-4.0321z" fill="#f0fff0" stop-color="#000000"/><path d="m115.41 99.207a4.4138 4.4138 0 0 0-6.2421 0l-31.21 31.21a4.4138 4.4138 0 0 0 0 6.2421 4.4138 4.4138 0 0 0 6.2421 0l31.21-31.21a4.4138 4.4138 0 0 0 0-6.2421z" fill="#00fa9a" stop-color="#000000"/><path d="m141.96 53.764a3.1067 3.1067 0 0 0-4.3936-1.5e-5l-43.936 43.936a3.1067 3.1067 0 0 0 0 4.3936 3.1067 3.1067 0 0 0 4.3936 0l43.936-43.936a3.1067 3.1067 0 0 0 0-4.3936z" fill="#3cb371" stop-color="#000000"/><path d="m164.04 50.309a2.8511 2.8511 0 0 0-4.0321 0l-40.321 40.321a2.8511 2.8511 0 0 0 0 4.0321 2.8511 2.8511 0 0 0 4.0321 0l40.321-40.321a2.8511 2.8511 0 0 0 0-4.0321z" fill="#f0fff0" stop-color="#000000"/><path d="m225.98-29.222a5.2186 5.2186 0 0 0-7.3802 0l-73.802 73.802a5.2186 5.2186 0 0 0 0 7.3802 5.2186 5.2186 0 0 0 7.3802 0l73.802-73.802a5.2186 5.2186 0 0 0 0-7.3802z" fill="#f0fff0" stop-color="#000000"/><path d="m186.32-12.341a2.8511 2.8511 0 0 0-4.0321 0l-20.161 20.161a2.8511 2.8511 0 0 0 0 4.0321 2.8511 2.8511 0 0 0 4.0321 0l20.161-20.161a2.8511 2.8511 0 0 0 0-4.0321z" fill="#00fa9a" stop-color="#000000"/><path d="m143.73 109.07a4.0234 4.0234 0 0 0-5.69-2e-5l-56.9 56.9a4.0234 4.0234 0 0 0 0 5.69 4.0234 4.0234 0 0 0 5.69 0l56.9-56.9a4.0234 4.0234 0 0 0 0-5.69z" fill="#3cb371" stop-color="#000000"/><path d="m77.132 174.99a2.8511 2.8511 0 0 0-4.0321 0l-20.161 20.161a2.8511 2.8511 0 0 0 0 4.0321 2.8511 2.8511 0 0 0 4.0321 0l20.161-20.161a2.8511 2.8511 0 0 0 0-4.0321z" fill="#00fa9a" stop-color="#000000"/><g fill="#3cb371"><path d="m118.2 115.47a2.587 2.587 0 0 0-3.6586 0l-36.586 36.586a2.587 2.587 0 0 0 0 3.6586 2.587 2.587 0 0 0 3.6586 0l36.586-36.586a2.587 2.587 0 0 0 0-3.6586z" stop-color="#000000"/><path d="m166.19 67.43a2.8511 2.8511 0 0 0-4.0321 0l-40.321 40.321a2.8511 2.8511 0 0 0 0 4.0321 2.8511 2.8511 0 0 0 4.0321 0l40.321-40.321a2.8511 2.8511 0 0 0 0-4.0321z" stop-color="#000000"/><path d="m172.41 102.38a2.8511 2.8511 0 0 0-4.0321 0l-40.321 40.321a2.8511 2.8511 0 0 0 0 4.0321 2.8511 2.8511 0 0 0 4.0321 0l40.321-40.321a2.8511 2.8511 0 0 0 0-4.0321z" stop-color="#000000"/></g><path d="m172.85 81.019a2.8511 2.8511 0 0 0-4.0321 0l-20.161 20.161a2.8511 2.8511 0 0 0 0 4.0321 2.8511 2.8511 0 0 0 4.0321 0l20.161-20.161a2.8511 2.8511 0 0 0 0-4.0321z" fill="#00fa9a" stop-color="#000000"/><path d="m204.87 92.664a2.8511 2.8511 0 0 0-4.0321 0l-40.321 40.321a2.8511 2.8511 0 0 0 0 4.0321 2.8511 2.8511 0 0 0 4.0321 0l40.321-40.321a2.8511 2.8511 0 0 0 0-4.0321z" fill="#3cb371" stop-color="#000000"/><path d="m200.55 73.321a2.8511 2.8511 0 0 0-4.0321 0l-20.161 20.161a2.8511 2.8511 0 0 0 0 4.0321 2.8511 2.8511 0 0 0 4.0321 0l20.161-20.161a2.8511 2.8511 0 0 0 0-4.0321z" fill="#00fa9a" stop-color="#000000"/><path d="m174.32 214.15a2.8511 2.8511 0 0 0-4.0321 0l-40.321 40.321a2.8511 2.8511 0 0 0 0 4.0321 2.8511 2.8511 0 0 0 4.0321 0l40.321-40.321a2.8511 2.8511 0 0 0 0-4.0321z" fill="#f0fff0" stop-color="#000000"/><path d="m176.9 230.42a2.8511 2.8511 0 0 0-4.0321 0l-20.161 20.161a2.8511 2.8511 0 0 0 0 4.0321 2.8511 2.8511 0 0 0 4.0321 0l20.161-20.161a2.8511 2.8511 0 0 0 0-4.0321z" fill="#00fa9a" stop-color="#000000"/><path d="m181.2 247.27a3.5324 3.5324 0 0 0-4.9956-1e-5l-49.956 49.956a3.5324 3.5324 0 0 0 0 4.9956 3.5324 3.5324 0 0 0 4.9956 0l49.956-49.956a3.5324 3.5324 0 0 0 0-4.9956z" fill="#3cb371" stop-color="#000000"/><path d="m310.38 96.906a5.2186 5.2186 0 0 0-7.3802 0l-73.802 73.802a5.2186 5.2186 0 0 0 0 7.3802 5.2186 5.2186 0 0 0 7.3802 0l73.802-73.802a5.2186 5.2186 0 0 0 0-7.3802z" fill="#f0fff0" stop-color="#000000"/><path d="m313.24 133.96a3.1067 3.1067 0 0 0-4.3936-2e-5l-43.936 43.936a3.1067 3.1067 0 0 0 0 4.3936 3.1067 3.1067 0 0 0 4.3936 0l43.936-43.936a3.1067 3.1067 0 0 0 0-4.3936z" fill="#3cb371" stop-color="#000000"/><path d="m312.74 153.56a2.8511 2.8511 0 0 0-4.0321 0l-40.321 40.321a2.8511 2.8511 0 0 0 0 4.0321 2.8511 2.8511 0 0 0 4.0321 0l40.321-40.321a2.8511 2.8511 0 0 0 0-4.0321z" fill="#f0fff0" stop-color="#000000"/><g fill="#3cb371"><path d="m356.62 129.69a2.8511 2.8511 0 0 0-4.0321 0l-40.321 40.321a2.8511 2.8511 0 0 0 0 4.0321 2.8511 2.8511 0 0 0 4.0321 0l40.321-40.321a2.8511 2.8511 0 0 0 0-4.0321z" stop-color="#000000"/><path d="m411.75 99.191a4.1456 4.1456 0 0 0-5.8627-2e-6l-58.627 58.627a4.1456 4.1456 0 0 0 0 5.8627 4.1456 4.1456 0 0 0 5.8627 0l58.627-58.627a4.1456 4.1456 0 0 0 0-5.8627z" stop-color="#000000"/><path d="m417.42 117.19a2.8511 2.8511 0 0 0-4.0321 0l-40.321 40.321a2.8511 2.8511 0 0 0 0 4.0321 2.8511 2.8511 0 0 0 4.0321 0l40.321-40.321a2.8511 2.8511 0 0 0 0-4.0321z" stop-color="#000000"/></g><path d="m404.79 81.179a2.8511 2.8511 0 0 0-4.0321 0l-40.321 40.321a2.8511 2.8511 0 0 0 0 4.0321 2.8511 2.8511 0 0 0 4.0321 0l40.321-40.321a2.8511 2.8511 0 0 0 0-4.0321z" fill="#f0fff0" stop-color="#000000"/><path d="m341.16 124.25a2.8511 2.8511 0 0 0-4.0321 0l-20.161 20.161a2.8511 2.8511 0 0 0 0 4.0321 2.8511 2.8511 0 0 0 4.0321 0l20.161-20.161a2.8511 2.8511 0 0 0 0-4.0321z" fill="#00fa9a" stop-color="#000000"/><g stroke-width="0"><path d="m290.31 92.453-6.2174-68.361 62.312 28.796z" fill="#ffa07a" stop-color="#000000"/><path d="m314.98 98.827-3.886-42.727 38.945 17.998z" fill="#ffa07a" stop-color="#000000"/><g transform="matrix(.17885 -.30978 .30978 .17885 353.39 288.54)"><ellipse transform="rotate(-4.8886)" cx="-73.86" cy="-33.511" rx="63.472" ry="39.228" fill="#243030" stop-color="#000000"/><ellipse transform="rotate(-4.8886)" cx="71.667" cy="-33.511" rx="63.472" ry="39.228" fill="#243030" stop-color="#000000"/><path d="m-23.3-33.632a1.9845 1.9845 0 0 0-1.8081 2.1464 1.9845 1.9845 0 0 0 2.1464 1.8081l39.545-3.3822a1.9845 1.9845 0 0 0 1.8081-2.1464 1.9845 1.9845 0 0 0-2.1464-1.8081z" fill="#808080" stop-color="#000000"/></g></g></g><path d="m364.54 126.05c-3.9163 2.0044-34.831-15.193-28.515-42.848 0.74681-5.6525-9.2913-5.6612-9.2913-5.6612-11.879-0.65653-64.746 1.7735-64.746 1.7735-17.336 0.81404-29.573-1.323-29.573-1.323-2.4497-0.53633-10.758-9.358 2.5348-12.068l16.832 2.2869 65.809 2.2194 10.017 1.1937s11.67 1.5489 11.037 13.58c14.907 5.4575 31.718 33.26 28.125 38.78-0.13255 2.1759-2.23 2.067-2.23 2.067z" fill="#ff7f50" stop-color="#000000"/><path d="m363.38 127.75c-3.9163 2.0044-34.831-15.193-28.515-42.848 0.74681-5.6525-9.2913-5.6612-9.2913-5.6612-11.879-0.65653-64.746 1.7735-64.746 1.7735-17.336 0.81404-29.573-1.323-29.573-1.323-2.4497-0.53633-10.758-9.358 2.5348-12.068l16.832 2.2869 65.809 2.2194 10.017 1.1937s11.67 1.5489 11.037 13.58c14.907 5.4575 31.718 33.26 28.125 38.78-0.13255 2.1759-2.23 2.067-2.23 2.067z" fill="#808080" stop-color="#000000"/></g></g></svg>
