<?xml version="1.0" encoding="UTF-8"?>
<!-- Created with Inkscape (http://www.inkscape.org/) -->
<svg width="14.607mm" height="14.591mm" version="1.1" viewBox="0 0 14.607 14.591" xml:space="preserve" xmlns="http://www.w3.org/2000/svg"><defs><linearGradient id="linearGradient1079" x1="-1.087" x2="16.403" y1="-17.256" y2="-1.0563" gradientUnits="userSpaceOnUse"><stop stop-color="#035560" offset="0"/><stop stop-color="#00d593" offset="1"/></linearGradient><linearGradient id="linearGradient1172" x1="-3.0988" x2="15.422" y1="-19.221" y2="-.7" gradientUnits="userSpaceOnUse"><stop stop-color="#016867" offset="0"/><stop stop-color="#00c087" offset=".24286"/><stop stop-color="#016867" offset=".62698"/><stop stop-color="#3d7a5c" offset="1"/></linearGradient></defs><g transform="translate(1.1422,17.256)" fill="url(#linearGradient1079)"><path d="m-1.087-17.256h14.552l-1.7471 1.7389h-8.4667v1.5875l3.9688 4.633-1.67e-5 -3.5747 1.0584 1.0583-1e-4 3.4399 4.6576 5.6692h-2.1167l-9.42-11.226 1.67e-5 -1.5872s-2.4734-1.7304-2.4861-1.7389zm0 1.0583 1.5875 1.0583v11.113h6.35l-4.1285-4.8762v2.6458h1.0583l1.3229 1.3229h-3.7042v-7.6729l8.3618 9.903-10.903 0.038757zm5.6611 1.4743 6.0854-1.7e-5 -1.3229 1.0583-2.9104 5e-5 1.67e-5 1.8521-1.8521-2.1168z" fill="url(#linearGradient1172)" stop-color="#000000" stroke-width="0"/></g></svg>
